<?xml version="1.0" encoding="utf-8"?>
<!-- Generator: Adobe Illustrator 24.3.0, SVG Export Plug-In . SVG Version: 6.00 Build 0)  -->
<svg version="1.1" id="Capa_1" xmlns="http://www.w3.org/2000/svg" xmlns:xlink="http://www.w3.org/1999/xlink" x="0px" y="0px"
	 viewBox="0 0 1080 1080" style="enable-background:new 0 0 1080 1080;" xml:space="preserve">
<style type="text/css">
	.st0{fill:#F1EDD9;}
	.st1{fill:#CE4A49;}
	.st2{fill:#304968;}
</style>
<rect x="-0.28" y="1.33" class="st0" width="1080" height="1080"/>
<g>
	<g>
		<path class="st1" d="M580.95,744.93c-35.33,14.32-77.13,0.09-77.55-0.05c-1.51-0.53-3.19,0.28-3.72,1.8
			c-0.53,1.52,0.27,3.19,1.8,3.72c1.18,0.41,20.02,6.84,43.44,6.84c12.12,0,25.47-1.72,38.22-6.89c1.5-0.61,2.22-2.31,1.61-3.81
			C584.15,745.05,582.44,744.32,580.95,744.93z"/>
		<path class="st1" d="M555.27,773.67c-9.92,2.19-23.3-0.01-23.43-0.03c-1.59-0.26-3.1,0.81-3.37,2.4c-0.27,1.59,0.81,3.1,2.4,3.37
			c0.39,0.06,6.58,1.08,13.91,1.08c3.82,0,7.96-0.28,11.75-1.11c1.58-0.35,2.57-1.91,2.23-3.48
			C558.4,774.32,556.84,773.33,555.27,773.67z"/>
		<path class="st1" d="M671.96,635.11c0.98-1.22,0.79-3.02-0.44-4c-1.22-0.98-3.02-0.79-4,0.44
			c-34.98,43.53-88.32,19.61-90.57,18.57c-1.44-0.66-3.12-0.04-3.78,1.39c-0.66,1.42-0.04,3.11,1.39,3.78
			c0.32,0.14,17.15,7.74,38.53,7.74C631.92,663.02,654.27,657.13,671.96,635.11z"/>
		<path class="st1" d="M510.99,651.51c-0.66-1.43-2.33-2.05-3.76-1.39c-2.24,1.04-55.26,24.96-90.04-18.57
			c-0.98-1.22-2.75-1.42-3.98-0.44c-1.22,0.98-1.41,2.77-0.43,4c17.59,22.02,39.8,27.91,58.52,27.91c21.26,0,37.99-7.59,38.31-7.74
			C511.03,654.62,511.64,652.93,510.99,651.51z"/>
		<path class="st1" d="M544.16,285.26c-157.87,0-286.31,128.44-286.31,286.31c0,98.38,49.88,185.32,125.67,236.88v0.23v98.13h0.02
			v3.96c40.8-6.33,76.6-28.03,101.37-59c1.41-1.77,2.78-3.57,4.12-5.4c3.98-5.43,7.65-11.1,10.95-17.01
			c13.3,7.28,27.82,12.83,43.49,15.56c0.18,0.03,0.35,0.05,0.53,0.05c0.24,0,0.48-0.03,0.71-0.08c0.4-0.09,17.59-4.35,40.75-16.79
			c3.65,6.44,7.73,12.61,12.18,18.46c1.39,1.83,2.82,3.62,4.29,5.39c25.23,30.4,61.26,51.44,102.14,57.1v-2.24h0.07v-98.13v-0.09
			c75.9-51.55,126.32-138.55,126.32-237.02C830.47,413.7,702.03,285.26,544.16,285.26z M783.13,425.42l-77.55,97.74l8.38-24.47
			l13.08-32.96l-33.37-1.02l-17.58-0.25l49.25-106.44C747.98,377.26,767.53,400,783.13,425.42z M609.78,421.56
			c17,38.28,45.63,69.74,81.13,89.38c3.94,12.75,6.15,26.26,6.4,40.27c-60.51-19.79-107.21-72.74-120.77-138.54
			C588.12,414.23,599.26,417.25,609.78,421.56z M558.33,404.63h-9.08l16.96-16.42l18.39-19.42l11.02,21.96l10.7,22.22
			C591.29,407.58,575.14,404.63,558.33,404.63z M611.33,414.85l0.19-0.09l-0.03,0.15C611.44,414.89,611.38,414.87,611.33,414.85z
			 M618.32,425.36c31.62,15.56,56.61,43.03,69.49,76.69C658.2,484.08,633.97,457.41,618.32,425.36z M623.64,420.49l21.42-7.03
			l23.52-7.3l-1.25,26.85l-0.07,21.83C655.03,440.75,640.24,429.05,623.64,420.49z M720.45,353.96l-47.08,101.76l0.07-22.56
			l1.65-35.42l-31.89,9.9l-25.68,8.43l23-107.62C669.75,319.19,696.7,334.68,720.45,353.96z M544.16,291.37
			c31.66,0,62.11,5.29,90.52,15.01l-22.4,104.85l-11.16-23.18l-14.95-29.79l-24.29,25.65l-17.49,16.94l-1.92-109.46
			C543.02,291.39,543.59,291.37,544.16,291.37z M409.33,817.32c-1.73,1.38-3.47,2.75-5.25,4.06c-4.43,3.25-9.01,6.3-13.78,9.08
			v-17.32v-7.29v-11.36c12.89-10.38,24.15-22.7,33.39-36.51c5.24,7.33,11.43,15.33,18.52,23.44
			C433.18,795.05,422.04,807.13,409.33,817.32z M446.43,786.14c6.25,6.82,13.13,13.64,20.62,20.11c-6.32,9.99-13.76,19.2-22.1,27.49
			c-1.6,1.59-3.23,3.15-4.9,4.67c-14.4,13.13-31.22,23.61-49.75,30.61v-31.46c6.91-3.83,13.51-8.15,19.77-12.92
			C410.06,824.65,438.06,802.63,446.43,786.14z M390.29,786.48v-42.27c4.84-5.81,9.27-11.97,13.28-18.43
			c1.76,3.36,7.31,13.59,16.33,26.78C411.69,765.25,401.71,776.68,390.29,786.48z M402.7,613.38v58.22
			c-3.8,5.51-7.95,10.75-12.4,15.71v-48.47C395.13,630.78,399.29,622.27,402.7,613.38z M390.29,626.1v-30.04
			c4.11-0.67,8.17-1.48,12.19-2.43c-2.27,8.99-5.33,17.67-9.08,25.97l-1.92,4.09C391.09,624.49,390.7,625.3,390.29,626.1z
			 M402.7,682.05v33.06c-3.67,6.71-7.82,13.11-12.4,19.18v-37.97C394.7,691.82,398.84,687.05,402.7,682.05z M390.29,589.81v-32.84
			c63-20.72,111.47-76.14,124.97-144.83c4.63-0.48,9.32-0.73,14.06-0.73h9.78C536.59,501.51,472.94,575.74,390.29,589.81z
			 M466.32,426.94c-15.14,30.28-37.97,55.66-65.76,73.28C413.2,468.48,436.7,442.44,466.32,426.94z M416.47,408.2l23.47,7.28
			l20.8,6.83c-16.45,9.02-31.02,21.13-42.95,35.63l-0.08-23.02L416.47,408.2z M475.14,422.67c10.62-4.62,21.91-7.92,33.67-9.71
			c-13.46,64.83-59.12,117.15-118.44,137.48c0.33-14.3,2.72-28.09,6.89-41.06C431.15,489.85,458.53,459.46,475.14,422.67z
			 M475.94,415.07l11.63-22.11l11.42-24.19l17.33,17.43l17.74,18.43h-4.72C510.48,404.63,492.49,408.37,475.94,415.07z
			 M536.31,291.49l1.91,108.65l-17.53-18.22l-23.5-23.64l-15.08,31.95l-11.69,22.22l-25.77-102.8
			C473.27,298.74,504.11,292.38,536.31,291.49z M438.89,311.92l26.43,105.47l-23.53-7.72l-31.84-9.88l1.64,35.29l0.08,24.82
			l-51.13-99.81C383.67,339.99,410.09,323.63,438.89,311.92z M355.82,364.29l52.36,102.22l-17.67,0.25l-33.32,1.02l13.03,32.82
			l9.2,26.86l-79.11-93.78C315.07,407.69,333.85,384.26,355.82,364.29z M383.52,786.23v7.57v7.21
			c-10.15-7.13-19.79-14.92-28.89-23.3l28.89-6.07V786.23z M383.52,765.37l-34.32,7.21c-9.87-9.57-19.04-19.86-27.42-30.78
			l61.74-2.09V765.37z M383.52,725.81v7.11v0.67l-66.2,2.24c-11.7-16.11-21.72-33.51-29.82-51.94l96.02,18.57V725.81z
			 M383.52,696.23l-98.9-19.12c-8.64-21.17-14.76-43.63-17.99-67l116.89,51.77V696.23z M383.52,655.18l-117.78-52.16
			c-1.16-10.33-1.79-20.82-1.79-31.45c0-15.72,1.32-31.13,3.82-46.14l115.74,86.76V655.18z M383.6,550.6
			c-0.02,1.09-0.08,2.17-0.08,3.26v50.68l-114.54-85.85c5.4-28.13,15-54.78,28.15-79.26l86.91,103.03L383.6,550.6z M375.95,498.48
			l-9.87-24.86l24.56-0.75l16.43-0.24c-10.39,16.34-17.72,34.89-21.2,54.79L375.95,498.48z M482.37,844.97
			c-1.37,1.8-2.79,3.56-4.23,5.3c-22.13,26.58-52.83,45.71-87.84,52.98v-27.63c21.13-7.64,40.22-19.59,56.23-34.77
			c1.64-1.56,3.25-3.15,4.83-4.78c7.65-7.88,14.52-16.53,20.47-25.83c7.11,5.8,14.73,11.24,22.83,16.07
			C491.01,832.85,486.87,839.06,482.37,844.97z M543.89,838.75c-79.52-14.32-130.46-107.51-135.03-116.16V607.12
			c1.36-0.47,75.83-25.82,105.57,3.17c17.21,16.78,18.57,48.09,4.03,93.07c-0.28,0.87-0.13,1.81,0.41,2.55
			c0.54,0.74,1.39,1.17,2.3,1.17h49.56c1.57,0,2.84-1.27,2.84-2.85s-1.27-2.85-2.84-2.85h-45.68c13.97-45.24,11.74-77.25-6.65-95.18
			c-29.95-29.19-97.17-9.12-109.53-5.09v-8.71c0-0.14-0.02-0.27-0.04-0.4c68.63-19.08,121.62-78.9,133.89-153.19
			c12.4,75.1,66.42,135.43,136.15,153.81c-0.02,0.15-0.05,0.31-0.05,0.47v7.6c-12.47-3.68-87.75-24.1-119.12,9.18
			c-1.11,1.18-0.99,2.98,0.27,4.02c0.58,0.48,1.3,0.71,2.01,0.71c0.84,0,1.69-0.33,2.29-0.97c30.85-32.74,113.42-7.31,114.25-7.05
			c0.1,0.03,0.2,0.04,0.29,0.06v115.97C635.54,812.46,551.77,836.65,543.89,838.75z M697.37,901.71
			c-35.11-6.66-66.08-25.18-88.62-51.25c-1.5-1.73-2.96-3.49-4.38-5.29c-4.99-6.31-9.52-13-13.5-20.05
			c7.43-4.24,15.36-9.3,23.47-15.29c6.27,9.54,13.52,18.38,21.6,26.38c1.62,1.61,3.28,3.18,4.98,4.72
			c16.19,14.75,35.34,26.27,56.47,33.51V901.71z M697.37,867.95c-18.53-6.63-35.44-16.71-49.98-29.45c-1.72-1.5-3.39-3.04-5.04-4.62
			c-8.72-8.33-16.49-17.64-23.12-27.78c7.14-5.57,14.36-11.87,21.45-18.99c8.93,12.59,19.6,23.84,31.66,33.41
			c1.76,1.4,3.54,2.76,5.35,4.08c6.24,4.55,12.82,8.68,19.69,12.31V867.95z M697.37,805.84v7.29v16.78
			c-4.72-2.63-9.26-5.52-13.66-8.61c-1.83-1.28-3.62-2.62-5.39-3.98c-12.77-9.8-24.04-21.49-33.28-34.73
			c6.5-6.9,12.85-14.51,18.88-22.89c9.37,13.2,20.65,24.94,33.44,34.81V805.84z M697.37,786.62c-11.33-9.31-21.32-20.2-29.67-32.31
			c5.66-8.36,10.98-17.46,15.83-27.33c4.19,6.42,8.81,12.54,13.84,18.29V786.62z M697.37,735.66c-4.54-5.7-8.68-11.74-12.4-18.05
			v-34.65c3.82,5.49,7.96,10.73,12.4,15.7V735.66z M697.37,689.17c-4.51-5.53-8.66-11.37-12.4-17.48v-65.63
			c3.05,11.04,7.23,21.61,12.4,31.58V689.17z M697.37,623.2c-3.78-9.04-6.75-18.51-8.79-28.32c2.91,0.59,5.84,1.11,8.79,1.55V623.2z
			 M697.37,590.19c-83.74-13.1-148.52-87.86-151.06-178.78h12.03c3.97,0,7.89,0.21,11.78,0.55
			c13.61,69.59,63.11,125.59,127.26,145.74V590.19z M679.23,470.62l14.31,0.2l24.61,0.75l-9.92,25l-7.97,23.27
			C696.18,502,688.96,485.38,679.23,470.62z M703.43,539.22c-0.1-1-0.24-1.98-0.35-2.97l83.43-105.16
			c13.99,24.05,24.51,50.35,30.86,78.23l-113.77,91.25L703.43,539.22z M704.14,801.16v-6.06l-0.08-30.12l35.43,6.84
			C728.53,782.51,716.71,792.34,704.14,801.16z M744.95,766.34l-40.42-7.8v-0.25l-0.1-0.02l0,0.25l-0.39-0.08l-0.08-29.91
			l73.55-2.52C767.9,740.46,756.98,753.95,744.95,766.34z M781.56,719.77l-77.61,2.66l-0.07-24.55l100.52-22.87
			C798.1,690.67,790.44,705.64,781.56,719.77z M807.04,668.13l-103.18,23.47l-0.09-33.67l119.06-57.35
			C820.37,624.08,814.98,646.72,807.04,668.13z M703.74,651.15l-0.12-42.74l115.19-92.39c3.63,17.96,5.54,36.54,5.54,55.55
			c0,7.37-0.32,14.67-0.89,21.91L703.74,651.15z"/>
	</g>
	<g>
		<g>
			<path class="st2" d="M220.09,293.99l1.34,1c-1.21,1.88-2.08,3.51-2.62,4.91c-0.54,1.39-0.51,2.91,0.07,4.54
				c0.58,1.63,2.09,3.19,4.53,4.67l48.43,30.29c3.41,2.11,6.11,3.42,8.1,3.92c1.99,0.5,3.6,0.48,4.82-0.07
				c1.22-0.55,2.82-1.67,4.8-3.35l1.34,1l-23.26,31.2l-1.34-1c1.89-2.66,2.73-5.23,2.52-7.71c-0.21-2.48-2.38-5.02-6.52-7.63
				l-45.77-28.95l-0.14,0.18l38,62.87l-1.2,1.62l-69.82-16.44l-0.14,0.19l35.66,31.25c3.49,3.08,6.54,4.95,9.15,5.6
				c2.6,0.65,4.72,0.51,6.34-0.41c1.62-0.92,3.17-2.24,4.65-3.97l1.34,1l-17.21,23.08l-1.34-1c1.99-3.06,2.47-6.14,1.43-9.24
				c-1.04-3.1-3.87-6.78-8.5-11.04l-39.61-36.64c-6.72-0.56-12.31,1.36-16.77,5.74l-1.34-1l18.31-24.55l59.38,13.68l-31.13-51.57
				L220.09,293.99z"/>
			<path class="st2" d="M237.87,281.97l-1.02-1.17l29.93-26.3l1.1,1.25c-3.32,2.91-4.79,5.55-4.43,7.91
				c0.36,2.36,1.64,4.78,3.82,7.26l39.29,44.72c1.24,1.41,2.49,2.57,3.73,3.46c1.25,0.9,2.82,1.31,4.73,1.24
				c1.91-0.07,4-1.1,6.28-3.1l0.35-0.3l1.1,1.25l-29.93,26.3l-1.1-1.25c3.29-2.89,4.76-5.51,4.42-7.87
				c-0.34-2.36-1.6-4.78-3.77-7.26l-39.29-44.72c-2.58-2.94-5.09-4.5-7.53-4.69C243.11,278.53,240.55,279.61,237.87,281.97z"/>
			<path class="st2" d="M362.09,248.09l11.39,23.21c1.37,2.79,2.87,4.68,4.52,5.67c1.64,0.99,3.3,1.34,4.97,1.06
				c1.67-0.29,3.48-0.9,5.41-1.85l0.74,1.5l-36.44,17.88l-0.73-1.5c2.45-1.2,4.38-2.78,5.81-4.75c1.43-1.96,1.24-4.79-0.57-8.48
				l-26.78-54.57c-1.79-3.65-3.82-5.85-6.09-6.6c-2.27-0.75-5.02-0.32-8.26,1.26l-0.73-1.5l40.36-19.81
				c5.58-2.74,10.67-3.92,15.26-3.54c4.59,0.38,8.39,1.77,11.42,4.18c3.02,2.41,5.35,5.28,6.99,8.63c1.93,3.93,2.73,7.63,2.4,11.1
				c-0.33,3.47-1.18,6.49-2.58,9.06c-1.6,3.01-3.7,5.7-6.3,8.06c-2.6,2.37-6.45,4.8-11.55,7.3
				C369.03,245.52,365.96,246.75,362.09,248.09z M343.98,211.19l16.08,32.77c1.91-0.46,3.67-1.1,5.29-1.89
				c3.79-1.86,6.41-4.29,7.87-7.29c1.46-3,1.98-6.09,1.58-9.27c-0.41-3.18-1.28-6.13-2.61-8.85c-1.4-2.86-3.21-5.23-5.42-7.12
				c-2.21-1.89-4.87-3.01-7.97-3.37s-6.54,0.38-10.29,2.23C347.13,209.07,345.62,210,343.98,211.19z"/>
			<path class="st2" d="M479.47,247.44l-62.41,16.65l-0.43-1.61c4.26-1.14,6.76-2.83,7.5-5.07c0.73-2.24,0.67-4.98-0.19-8.2
				l-15.34-57.52c-0.95-3.56-2.43-6.02-4.44-7.37c-2.01-1.35-4.85-1.54-8.52-0.56l-0.43-1.61l38.72-10.33l0.43,1.61
				c-4.26,1.14-6.8,2.84-7.61,5.1c-0.81,2.26-0.77,5.02,0.1,8.28l14.62,54.79c0.9,3.38,2.24,5.77,4,7.19
				c1.77,1.41,4.54,1.62,8.33,0.61l5.67-1.51c3.86-1.03,7.23-2.98,10.12-5.86c2.89-2.88,4.71-8.25,5.47-16.12l1.61-0.43
				L479.47,247.44z"/>
			<path class="st2" d="M526.99,157.91L558.54,230c1.69,3.69,3.6,6.2,5.73,7.51c2.13,1.31,4.72,2.16,7.77,2.53l0.07,1.67
				l-40.15,1.68l-0.07-1.67c5.47-0.54,8.14-2.38,8.01-5.52c-0.02-0.5-0.14-1.19-0.35-2.09c-0.21-0.89-0.48-1.84-0.81-2.85
				c-0.33-1-0.54-1.62-0.63-1.85l-7.83-17.71l-25.31,1.06l-5.31,17.57c-0.68,2.1-0.98,4-0.91,5.69c0.11,2.61,0.95,4.33,2.52,5.16
				c1.57,0.84,3.42,1.37,5.54,1.58l0.07,1.67l-25.42,1.07l-0.07-1.67c2.64-0.38,5.06-1.72,7.27-4.02c2.21-2.3,4.26-6.45,6.16-12.45
				l21.19-69L526.99,157.91z M506.7,207.05l21.11-0.88l-12.12-28.07L506.7,207.05z"/>
			<path class="st2" d="M618.69,164.84l38.74,64.52l8.38-37.89c1.1-4.98,0.84-8.61-0.78-10.87c-1.62-2.26-4.45-4.16-8.47-5.68
				l0.36-1.63l28.56,6.31l-0.36,1.63c-3.22-0.36-5.75-0.02-7.59,1c-1.84,1.03-3.19,2.41-4.04,4.15c-0.86,1.74-1.56,3.84-2.1,6.31
				l-15.09,68.24l-2.08-0.46l-46.5-77.14l-10.3,46.6c-0.86,3.9-0.76,7.41,0.3,10.53c1.06,3.12,3.8,5.35,8.22,6.68l-0.36,1.63
				l-29.57-6.54l0.36-1.63c8.43,1.16,13.43-2,15.01-9.48l12.12-54.81c-0.19-0.2-0.43-0.53-0.72-0.98c-0.26-0.41-0.71-1.08-1.33-2
				c-0.62-0.92-1.18-1.75-1.69-2.5c-3.95-5.94-7.76-9.62-11.42-11.02l0.36-1.63L618.69,164.84z"/>
			<path class="st2" d="M756.75,315.15l9.02-13.29l-0.19-0.13c-11.47,5.9-22.26,5.42-32.35-1.43c-5.11-3.47-8.88-7.77-11.32-12.9
				c-2.43-5.13-3.37-10.19-2.8-15.19c0.55-5.19,3.66-11.96,9.33-20.31l20.04-29.53c2.03-2.98,2.97-5.65,2.82-8
				c-0.15-2.35-1.92-4.68-5.32-6.98l0.94-1.38l32.96,22.37l-0.94,1.38c-3.62-2.46-6.53-3.23-8.73-2.31
				c-2.2,0.92-4.24,2.76-6.11,5.52l-21.24,31.3c-3.12,4.6-5.04,8.62-5.74,12.04c-0.52,2.47-0.53,4.9-0.04,7.28
				c0.5,2.38,1.46,4.58,2.88,6.62c1.42,2.03,3.19,3.76,5.28,5.19c2.19,1.49,4.55,2.52,7.08,3.1c2.53,0.58,5.09,0.68,7.69,0.31
				c2.59-0.37,4.93-1.2,7.01-2.48c3-1.95,6.46-5.82,10.38-11.6l19.85-29.25c2.26-3.33,3.2-6.15,2.82-8.46
				c-0.39-2.3-2.13-4.51-5.25-6.62l0.87-1.28l32.96,22.37l-0.94,1.38c-3.59-2.44-6.48-3.21-8.67-2.34c-2.2,0.88-4.25,2.73-6.17,5.55
				l-33.43,49.25c-2.11,3.11-3.05,5.84-2.83,8.17c0.22,2.33,1.99,4.62,5.29,6.86l-0.87,1.29L756.75,315.15z"/>
			<path class="st2" d="M859.58,324.86l-1.55-1.63c2.77-4.77,4.11-9.41,4.01-13.93c-0.1-4.52-1.79-8.51-5.07-11.95
				c-1.62-1.7-3.43-2.92-5.45-3.67c-2.02-0.75-4.05-0.94-6.09-0.55c-2.04,0.39-3.89,1.36-5.53,2.92c-0.94,0.9-1.72,1.95-2.33,3.14
				c-0.61,1.19-1,3.04-1.17,5.53c-0.17,2.49,0.13,5.76,0.91,9.79c0.93,4.47,1.44,7.24,1.55,8.3c1.14,5.59,1.83,10.4,2.06,14.42
				c0.23,4.02-0.2,7.66-1.28,10.92c-1.08,3.26-3.01,6.21-5.79,8.86c-2.56,2.44-5.35,4.16-8.39,5.17c-3.04,1.01-6.2,1.35-9.47,1
				c-3.28-0.35-6.54-1.38-9.78-3.08c-3.25-1.71-6.27-4.03-9.08-6.98c-2.89-3.03-5.65-7.07-8.3-12.13c-0.32-0.55-0.73-1.23-1.24-2.05
				c-0.51-0.81-1.02-1.48-1.52-2.01c-1.24-1.31-2.83-1.6-4.74-0.89l-1.39-1.46l17.69-16.15l1.55,1.63
				c-2.77,3.65-4.43,7.39-4.97,11.22c-0.54,3.83-0.26,7.31,0.85,10.44c1.11,3.14,2.67,5.76,4.68,7.87c2.94,3.08,6.23,4.81,9.87,5.18
				c3.64,0.37,6.7-0.62,9.17-2.98c1.67-1.59,2.71-3.4,3.14-5.42c0.43-2.03,0.44-4.46,0.03-7.31c-0.41-2.85-1.35-8.05-2.83-15.6
				c-0.75-4.01-1.2-7.6-1.35-10.76c-0.16-3.17-0.01-5.89,0.44-8.17c0.45-2.28,1.17-4.28,2.16-6c0.99-1.71,2.27-3.31,3.82-4.8
				c3-2.86,6.69-4.91,11.08-6.15c4.39-1.24,8.85-1.32,13.4-0.25c4.55,1.07,8.56,3.43,12.03,7.06c1.62,1.7,3,3.48,4.15,5.35
				c0.34,0.47,0.75,1.14,1.24,2c0.48,0.87,0.89,1.59,1.23,2.17c0.94,1.43,1.7,2.46,2.29,3.07c0.9,0.94,1.68,1.46,2.34,1.54
				c0.66,0.09,1.45,0.02,2.35-0.21l1.23,1.29L859.58,324.86z"/>
			<path class="st2" d="M917.7,368.57l-47.17,62.98c-2.38,3.29-3.62,6.19-3.71,8.69c-0.09,2.5,0.45,5.17,1.63,8.01l-1.42,0.88
				l-21.26-34.1l1.42-0.88c3.16,4.5,6.08,5.91,8.75,4.25c0.42-0.26,0.97-0.71,1.65-1.33c0.67-0.62,1.37-1.33,2.08-2.11
				c0.71-0.78,1.15-1.27,1.3-1.45l11.55-15.54l-13.4-21.5l-17.9,4.03c-2.16,0.44-3.96,1.12-5.4,2.01c-2.22,1.38-3.3,2.96-3.25,4.74
				c0.05,1.78,0.5,3.65,1.35,5.6l-1.42,0.88l-13.46-21.6l1.42-0.88c1.63,2.11,3.99,3.55,7.08,4.34c3.09,0.79,7.71,0.53,13.86-0.77
				l70.48-15.57L917.7,368.57z M864.95,375.13l11.17,17.93l18.45-24.39L864.95,375.13z"/>
		</g>
	</g>
</g>
</svg>
